<?xml version="1.0" encoding="UTF-8"?>
<svg width="29px" height="77px" viewBox="0 0 29 77" version="1.1" xmlns="http://www.w3.org/2000/svg" xmlns:xlink="http://www.w3.org/1999/xlink">
    <!-- Generator: Sketch 49.3 (51167) - http://www.bohemiancoding.com/sketch -->
    <title>Group</title>
    <desc>Created with Sketch.</desc>
    <defs></defs>
    <g id="Page-1" stroke="none" stroke-width="1" fill="none" fill-rule="evenodd">
        <g id="Group" fill-rule="nonzero">
            <path d="M28.2034213,27.8386167 C27.7055596,27.3342939 27.3072703,27.0317003 26.9089809,26.8299712 L26.8094086,13.9193084 C26.8094086,13.8184438 26.8094086,13.7175793 26.8094086,13.6167147 C26.8094086,13.5158501 23.8222385,4.74063401 14.462439,4.74063401 C5.10263943,4.74063401 2.11546936,13.5158501 2.11546936,13.6167147 C2.11546936,13.7175793 2.11546936,13.8184438 2.11546936,13.9193084 L2.01589702,26.8299712 C1.61760768,27.0317003 1.21931833,27.3342939 0.721456656,27.8386167 C0.124022642,28.443804 -0.0751220297,29.0489914 0.024450306,29.6541787 C0.124022642,30.259366 0.522311985,30.6628242 0.821028992,30.7636888 C0.920601327,30.8645533 1.119746,30.8645533 1.31889067,30.8645533 L27.7055596,30.8645533 C27.9047043,30.8645533 28.0042766,30.8645533 28.2034213,30.7636888 C28.5021383,30.5619597 28.9004277,30.1585014 29,29.6541787 C29,29.0489914 28.8008553,28.443804 28.2034213,27.8386167 Z M2.5137587,28.8472622 C2.71290337,28.6455331 2.91204804,28.6455331 2.91204804,28.6455331 C3.21076505,28.7463977 3.40990972,28.6455331 3.60905439,28.443804 C3.80819906,28.2420749 3.9077714,27.9394813 3.9077714,27.6368876 L4.00734373,14.1210375 C4.40563308,13.1123919 7.09408614,6.75792507 14.3628666,6.75792507 C21.7312195,6.75792507 24.4196726,13.0115274 24.7183896,14.1210375 L24.8179619,27.6368876 C24.8179619,27.9394813 24.8179619,28.2420749 25.0171066,28.443804 C25.2162512,28.6455331 25.4153959,28.7463977 25.7141129,28.6455331 C25.7141129,28.6455331 25.9132576,28.6455331 26.2119746,28.8472622 L2.5137587,28.8472622 Z M14.462439,3.22766571 C13.5825625,3.22766571 12.8692816,2.50512813 12.8692816,1.61383285 C12.8692816,0.72253758 13.5825625,3.55271368e-15 14.462439,3.55271368e-15 C15.3423155,3.55271368e-15 16.0555964,0.72253758 16.0555964,1.61383285 C16.0555964,2.50512813 15.3423155,3.22766571 14.462439,3.22766571 Z M16.9517474,32.9827089 C17.4496091,32.9827089 17.9474707,33.3861671 17.9474707,33.9913545 C17.9474707,34.5965418 17.5491814,35 16.9517474,35 L11.8735583,35 C11.2761242,35 10.8778349,34.5965418 10.8778349,33.9913545 C10.8778349,33.3861671 11.2761242,32.9827089 11.8735583,32.9827089 L16.9517474,32.9827089 Z" id="inactive" fill="#D5D5D5"></path>
            <path d="M28.2034213,69.8386167 C27.7055596,69.3342939 27.3072703,69.0317003 26.9089809,68.8299712 L26.8094086,55.9193084 C26.8094086,55.8184438 26.8094086,55.7175793 26.8094086,55.6167147 C26.8094086,55.5158501 23.8222385,46.740634 14.462439,46.740634 C5.10263943,46.740634 2.11546936,55.5158501 2.11546936,55.6167147 C2.11546936,55.7175793 2.11546936,55.8184438 2.11546936,55.9193084 L2.01589702,68.8299712 C1.61760768,69.0317003 1.21931833,69.3342939 0.721456656,69.8386167 C0.124022642,70.443804 -0.0751220297,71.0489914 0.024450306,71.6541787 C0.124022642,72.259366 0.522311985,72.6628242 0.821028992,72.7636888 C0.920601327,72.8645533 1.119746,72.8645533 1.31889067,72.8645533 L27.7055596,72.8645533 C27.9047043,72.8645533 28.0042766,72.8645533 28.2034213,72.7636888 C28.5021383,72.5619597 28.9004277,72.1585014 29,71.6541787 C29,71.0489914 28.8008553,70.443804 28.2034213,69.8386167 Z M2.5137587,70.8472622 C2.71290337,70.6455331 2.91204804,70.6455331 2.91204804,70.6455331 C3.21076505,70.7463977 3.40990972,70.6455331 3.60905439,70.443804 C3.80819906,70.2420749 3.9077714,69.9394813 3.9077714,69.6368876 L4.00734373,56.1210375 C4.40563308,55.1123919 7.09408614,48.7579251 14.3628666,48.7579251 C21.7312195,48.7579251 24.4196726,55.0115274 24.7183896,56.1210375 L24.8179619,69.6368876 C24.8179619,69.9394813 24.8179619,70.2420749 25.0171066,70.443804 C25.2162512,70.6455331 25.4153959,70.7463977 25.7141129,70.6455331 C25.7141129,70.6455331 25.9132576,70.6455331 26.2119746,70.8472622 L2.5137587,70.8472622 Z M14.462439,45.2276657 C13.5825625,45.2276657 12.8692816,44.5051281 12.8692816,43.6138329 C12.8692816,42.7225376 13.5825625,42 14.462439,42 C15.3423155,42 16.0555964,42.7225376 16.0555964,43.6138329 C16.0555964,44.5051281 15.3423155,45.2276657 14.462439,45.2276657 Z M16.9517474,74.9827089 C17.4496091,74.9827089 17.9474707,75.3861671 17.9474707,75.9913545 C17.9474707,76.5965418 17.5491814,77 16.9517474,77 L11.8735583,77 C11.2761242,77 10.8778349,76.5965418 10.8778349,75.9913545 C10.8778349,75.3861671 11.2761242,74.9827089 11.8735583,74.9827089 L16.9517474,74.9827089 Z" id="active" fill="#C85B5B"></path>
        </g>
    </g>
</svg>