<?xml version="1.0" standalone="no"?>
<!DOCTYPE svg PUBLIC "-//W3C//DTD SVG 1.1//EN" "http://www.w3.org/Graphics/SVG/1.1/DTD/svg11.dtd" >
<svg xmlns="http://www.w3.org/2000/svg" xmlns:xlink="http://www.w3.org/1999/xlink" version="1.1">
<metadata></metadata>
<defs>
<font id="seven_swordsmen_bbregular" horiz-adv-x="1174" >
<font-face units-per-em="2048" ascent="1638" descent="-410" />
<missing-glyph horiz-adv-x="870" />
<glyph horiz-adv-x="0" />
<glyph unicode="&#xd;" horiz-adv-x="870" />
<glyph unicode=" "  horiz-adv-x="870" />
<glyph unicode="&#x09;" horiz-adv-x="870" />
<glyph unicode="&#xa0;" horiz-adv-x="870" />
<glyph unicode="!" horiz-adv-x="740" d="M82 96q0 98 120 172q106 64 210 64q126 0 126 -98q0 -100 -120 -172q-104 -62 -210 -62q-126 0 -126 96zM148 1282q134 28 484 74q-10 -130 -55 -391t-55 -397q-106 -30 -318 -92q92 282 92 556q0 90 -42 142q-54 54 -106 108z" />
<glyph unicode="&#x22;" horiz-adv-x="816" d="M58 1362l322 18l-114 -432l-118 -54zM442 1372l322 18l-114 -432l-118 -54z" />
<glyph unicode="#" horiz-adv-x="1468" d="M50 458q72 10 276 34q0 32 -2 98v96q-136 50 -274 178l260 32q-2 88 -56 162l-116 128q214 50 476 84q0 -84 6 -348q156 12 312 18q-14 72 -66 136q-50 54 -102 110q214 50 476 84q0 -82 6 -318q82 0 324 6q-108 -20 -324 -62q0 -8 8 -350q80 0 316 6q-106 -20 -316 -60 q0 -100 6 -388q-174 -66 -348 -126q34 170 42 450q-162 -36 -324 -88q0 -170 4 -322q-56 -20 -174 -20t-174 -20q24 124 36 304q-138 52 -272 176zM622 744q0 -36 2 -113t2 -113q110 6 328 18q-4 154 -12 296q-160 -40 -320 -88z" />
<glyph unicode="$" horiz-adv-x="1110" d="M86 526v22q90 0 270 14q-22 -122 -22 -202q0 -102 28 -148q38 -60 132 -60q120 0 244 127t124 247q0 90 -116 128q-58 20 -192 32q-100 10 -186 26q-102 20 -164 56q-68 36 -68 102q0 160 224 232q-36 40 -104 120q158 40 476 96q0 -28 2 -86v-84q80 0 120 -2 q-10 -140 -10 -224q-68 -8 -204 -28q0 24 2 76v74q-226 0 -226 -154q0 -106 270 -152q282 -48 378 -132q82 -72 82 -148q0 -112 -146 -218q-114 -82 -250 -122q2 -34 2 -96q-114 -42 -350 -138q18 98 28 202q-176 24 -264 146q-82 112 -80 294z" />
<glyph unicode="%" horiz-adv-x="1708" d="M56 666q0 182 155 331t337 149q132 0 222 -79t100 -209q82 114 82 186q0 26 -12 72l-20 70q240 48 534 84l-348 -518q104 56 216 56q140 0 235 -91t95 -229q0 -180 -158 -328t-340 -148q-144 0 -236 93t-86 239q-124 -182 -218 -326q-60 -16 -188 -19t-192 -21 q130 140 324 410q-88 -38 -178 -38q-138 0 -231 89t-93 227zM242 826q0 -100 106 -211t206 -111q62 0 104 45t42 109q0 100 -106 210t-206 110q-62 0 -104 -44t-42 -108zM1016 486q0 -100 106 -210t206 -110q62 0 104 46t42 108q0 102 -106 211t-204 109q-64 0 -106 -45 t-42 -109z" />
<glyph unicode="&#x26;" horiz-adv-x="1346" d="M32 634q0 284 266 490q246 192 538 192q180 0 348 -92q-14 -14 -14 -30l12 -38q-2 -2 -8 -2q-16 0 -109 25t-149 25q-186 0 -354 -160t-168 -344q0 -42 30 -52q12 -2 66 -2q124 0 364 40q-38 34 -110 106q194 40 476 78l20 -1134q-56 -18 -175 -18t-175 -20 q26 116 42 360l-574 -120q-114 122 -114 230q0 114 130 230q98 90 234 150q-140 -30 -534 -110q-42 96 -42 196zM610 218q0 -100 114 -100q70 0 208 28v92q0 206 -20 330q-124 -42 -206 -130q-96 -100 -96 -220z" />
<glyph unicode="'" horiz-adv-x="404" d="M58 1362l322 18l-114 -432l-118 -54z" />
<glyph unicode="(" horiz-adv-x="856" d="M54 596q0 292 190 514q182 214 472 292l96 -72q-216 -44 -332 -242q-100 -174 -100 -410q0 -234 96 -442q108 -232 298 -332l-52 -72q-294 66 -476 262q-192 210 -192 502z" />
<glyph unicode=")" horiz-adv-x="858" d="M26 -96q216 42 330 238q98 170 98 406q0 234 -96 444q-106 234 -294 338l52 72q294 -66 476 -264q192 -210 192 -502t-190 -514q-182 -212 -472 -290z" />
<glyph unicode="*" horiz-adv-x="934" d="M4 1018q112 80 336 238q112 -164 178 -252q90 166 158 358q86 -122 246 -332q-94 -68 -280 -204q64 -92 192 -272l-42 -38q-122 122 -264 226q-140 -100 -298 -218l-38 40q108 112 214 260q-178 108 -402 194z" />
<glyph unicode="+" horiz-adv-x="1098" d="M28 736q246 34 428 50q-10 118 -20 150q-10 40 -46 70l-116 92q164 28 476 62l8 -352q2 0 336 16l-40 -90q-138 -32 -292 -76q0 -176 10 -420q-58 -16 -176 -16t-174 -14q38 142 42 346l-92 -38q-182 52 -344 220z" />
<glyph unicode="," horiz-adv-x="518" d="M118 326q112 24 334 70q-98 -384 -254 -570l-70 18q28 88 28 196q0 120 -38 286z" />
<glyph unicode="-" d="M64 682q392 60 1068 90l-40 -92q-404 -94 -682 -216q-170 48 -346 218z" />
<glyph unicode="." horiz-adv-x="732" d="M168 96q0 98 120 172q108 64 212 64q124 0 124 -98q0 -100 -120 -170q-104 -64 -210 -64q-126 0 -126 96z" />
<glyph unicode="/" horiz-adv-x="1100" d="M-20 -22q156 174 408 528q308 432 308 538q0 28 -14 72q-16 58 -18 70q240 48 534 84l-842 -1252q-62 -16 -188 -20t-188 -20z" />
<glyph unicode="0" horiz-adv-x="1332" d="M2 546q0 282 242 480q226 186 516 186q230 0 396 -130q180 -142 180 -368q0 -282 -242 -482q-230 -188 -518 -188q-232 0 -398 132q-176 142 -176 370zM330 670q0 -182 98 -342q112 -182 286 -182q150 0 238 136q76 118 76 276q0 186 -98 348q-112 188 -288 188 q-148 0 -236 -144q-76 -122 -76 -280z" />
<glyph unicode="1" horiz-adv-x="674" d="M-96 1124q64 16 308 90q188 60 310 76q8 -584 20 -1166q-116 -42 -350 -126q50 254 50 586q0 244 -26 356q-16 70 -96 88q-68 6 -137 13t-69 53q0 16 -10 30z" />
<glyph unicode="2" horiz-adv-x="1128" d="M-12 186q182 22 376 42q128 124 228 368q96 238 96 422q0 156 -84 156q-58 0 -236 -32l30 -238l-318 -112l-78 356q106 24 962 208q94 -104 94 -252q0 -226 -164 -480q-140 -222 -346 -382q336 26 958 36q-448 -86 -594 -118q-332 -78 -578 -176q-182 46 -346 202z" />
<glyph unicode="3" horiz-adv-x="1132" d="M-64 48q14 12 14 28q0 -4 -12 40q2 2 8 2q14 0 110 -26t152 -26q182 0 347 161t165 343q0 44 -28 54q-12 4 -68 4q-148 0 -546 -76q-22 52 -22 88q0 32 26 40q14 4 116 24q62 12 122 54q186 130 186 288q0 106 -114 106q-60 0 -322 -48q-8 26 -28 78q240 50 720 152 q110 -124 110 -232q0 -114 -128 -230q-100 -88 -234 -148q178 34 536 108q40 -96 40 -196q0 -284 -264 -488q-248 -192 -540 -192q-178 0 -346 92z" />
<glyph unicode="4" horiz-adv-x="1132" d="M-12 1074q84 4 178 4q132 0 302 -8q-34 -168 -98 -504q106 10 316 26q-2 132 -18 394q-10 98 -70 168q-34 36 -102 112q170 42 476 90q4 -388 12 -750q46 0 138 3t136 3q-140 -32 -272 -64q0 -268 8 -508q-56 -20 -174 -20t-176 -22q36 192 40 468q-202 -62 -372 -150 q-150 50 -280 204q32 46 54 144q18 86 18 156q0 58 -42 132q-36 62 -74 122z" />
<glyph unicode="5" horiz-adv-x="1208" d="M-84 1242q500 74 1396 94q-186 -40 -370 -80q-212 -46 -368 -92q-32 -152 -90 -456q344 66 614 124q40 -96 40 -196q0 -284 -266 -488q-248 -192 -540 -192q-178 0 -344 92q14 12 14 28q0 -4 -12 40q2 2 8 2q12 0 109 -26t151 -26q184 0 349 161t165 345q0 42 -28 52 q-12 4 -68 4q-156 0 -546 -76q-14 24 -40 76q116 112 116 316q0 60 -16 108q-130 46 -274 190z" />
<glyph unicode="6" horiz-adv-x="1326" d="M36 626q0 266 137 453t391 257q68 18 138 18q254 0 522 -250q-38 -2 -196 -86q-124 -68 -224 -170q-10 -10 -22 -10q-26 0 -26 24q0 22 26 71t26 55q0 8 -66 46q-166 98 -276 98q-118 0 -184 -81t-66 -201q0 -272 208 -458q122 142 290 240q192 110 358 110q92 0 155 -48 t63 -140q0 -82 -46 -186q-66 -144 -286 -248q-202 -98 -378 -98q-252 0 -402 178q-142 168 -142 426zM490 340q138 -142 328 -142q70 0 120 30q62 36 62 100q0 58 -86 98q-72 34 -140 34q-134 0 -284 -120z" />
<glyph unicode="7" horiz-adv-x="1038" d="M-116 1220q558 80 1516 94q-8 -2 -336 -64q-250 -620 -448 -1126l-402 -126q116 188 232 458q196 462 196 562q0 58 -40 126q-208 -58 -374 -126q-164 42 -344 202z" />
<glyph unicode="8" horiz-adv-x="1342" d="M-18 304q0 132 132 252q102 94 252 154q-244 66 -244 234q0 126 160 242q200 142 484 142q154 0 278 -54q162 -72 162 -206q0 -162 -230 -284q154 -26 264 -100q140 -92 140 -228q0 -158 -206 -304q-256 -182 -628 -182q-198 0 -358 70q-206 92 -206 264zM316 454 q0 -150 164 -266q152 -108 308 -108q106 0 178 50q84 56 84 160q0 148 -168 266q-152 106 -308 106q-106 0 -176 -50q-82 -56 -82 -158zM460 1100q0 -90 77 -184t165 -124q72 6 132 4q42 30 42 88q0 100 -104 215t-204 115q-108 0 -108 -114z" />
<glyph unicode="9" horiz-adv-x="1358" d="M12 832q0 204 240 356q200 128 428 154q60 8 118 8q570 0 570 -472q0 -330 -298 -602q-248 -226 -606 -344l-26 86q242 60 382 195t192 373q-222 -108 -468 -108q-196 0 -346 80q-186 96 -186 274zM328 994q0 -152 154 -278q146 -118 302 -118q106 0 178 56t72 160 q0 154 -152 276q-144 116 -302 116q-102 0 -174 -54q-78 -58 -78 -158z" />
<glyph unicode=":" horiz-adv-x="732" d="M126 546q0 98 120 172q108 64 212 64q124 0 124 -98q0 -100 -120 -172q-104 -62 -210 -62q-126 0 -126 96zM168 96q0 98 120 172q108 64 212 64q124 0 124 -98q0 -100 -120 -170q-104 -64 -210 -64q-126 0 -126 96z" />
<glyph unicode=";" horiz-adv-x="518" d="M34 602q0 98 120 172q108 64 212 64q124 0 124 -98q0 -100 -120 -172q-104 -62 -210 -62q-126 0 -126 96zM118 326q112 24 334 70q-98 -384 -254 -570l-70 18q28 88 28 196q0 120 -38 286z" />
<glyph unicode="=" horiz-adv-x="1098" d="M14 830q416 64 1064 88l-38 -90q-396 -92 -682 -218q-182 52 -344 220zM32 466q396 58 1064 88l-40 -90q-420 -104 -680 -218q-182 52 -344 220z" />
<glyph unicode="?" horiz-adv-x="946" d="M68 958q10 26 34 74q76 120 221 203t285 83q120 0 200 -48q94 -60 94 -174q0 -276 -472 -482l356 -46l-514 -128q-44 32 -66 52q-46 40 -48 58l4 8q98 50 198 100q114 60 175 143t61 149q0 122 -190 122q-130 0 -338 -114zM160 96q0 98 120 172q106 64 210 64 q126 0 126 -98q0 -100 -120 -172q-104 -62 -210 -62q-126 0 -126 96z" />
<glyph unicode="@" horiz-adv-x="1550" d="M38 522q0 326 258 572t586 246q270 0 453 -174t183 -442q0 -218 -90 -354q-38 -56 -210 -116q-86 -30 -154 -30q-70 0 -108 56q-60 84 -134 340q-168 -42 -314 -100q-14 -52 -14 -98q0 -162 176 -192q-68 -30 -204 -72q48 -68 184 -114q120 -40 222 -40q10 0 31 18t38 21 t59 7l14 -66q-166 -76 -336 -76q-268 0 -454 174t-186 440zM226 698q0 -174 96 -328q26 84 88 188q-52 24 -132 94q68 10 208 26q66 100 188 222q102 104 206 206q36 -134 126 -398l278 8q-66 -14 -260 -50q114 -274 284 -292q26 82 26 168q0 246 -194 447t-440 201 q-204 0 -339 -143t-135 -349zM574 686q74 4 226 14q-12 38 -60 224q-96 -106 -166 -238z" />
<glyph unicode="A" horiz-adv-x="1338" d="M-22 646q134 20 310 38q102 152 282 336q156 154 312 310q44 -152 88 -302q52 -174 104 -298q108 4 420 10q-132 -24 -394 -74q194 -446 466 -446q52 0 104 16v-2q-138 -68 -278 -138q-212 -100 -266 -100q-106 0 -212 252q-40 98 -116 350q-260 -66 -474 -152 q-22 -82 -22 -150q0 -242 266 -288q-230 -88 -364 -88q-186 0 -186 162q0 148 156 420q-84 42 -196 144zM424 696q112 8 338 22q-48 170 -88 338q-144 -154 -250 -360z" />
<glyph unicode="B" horiz-adv-x="1210" d="M-60 1176q206 48 474 84l2 -82q72 14 594 126q110 -122 110 -232q0 -116 -128 -230q-100 -90 -234 -148q280 52 536 108q42 -100 42 -202q0 -272 -270 -480q-252 -194 -534 -194q-148 0 -290 62q-106 0 -158 -20q46 218 46 526q0 246 -22 414q-12 86 -60 150 q-54 58 -108 118zM416 1092l8 -428q124 32 220 126q110 106 110 224q0 108 -108 108q-50 0 -230 -30zM426 540q0 -266 8 -502h8q290 0 452 272q26 44 50 114q30 80 30 122q0 38 -30 46q-10 4 -60 4q-122 0 -458 -56z" />
<glyph unicode="C" horiz-adv-x="1222" d="M22 596q0 262 140 452t390 256q68 18 136 18q252 0 522 -248q-40 -4 -194 -88q-118 -64 -224 -168q-12 -10 -22 -10q-28 0 -28 24q0 20 26 69t26 55q0 36 -148 90q-136 50 -194 50q-124 0 -187 -77t-63 -205q0 -244 177 -421t421 -177q268 0 576 208l26 -74 q-474 -352 -810 -352q-274 0 -424 164q-146 158 -146 434z" />
<glyph unicode="D" horiz-adv-x="1096" d="M-36 1176q206 48 474 84l2 -82l692 148q94 -106 94 -256q0 -254 -204 -540q-186 -260 -426 -402q-186 -110 -486 -160q44 218 44 538q0 250 -20 402q-12 86 -62 150q-54 58 -108 118zM442 1092l16 -954q162 96 286 382q116 266 116 476q0 148 -84 148q-72 0 -334 -52z " />
<glyph unicode="E" horiz-adv-x="1226" d="M-130 644q40 4 118 16q22 278 192 460q178 194 452 194q298 0 536 -240l-298 -220q-264 238 -456 238q-126 0 -196 -98q-62 -86 -62 -218q0 -48 10 -98q450 44 1220 60q-470 -94 -570 -116q-322 -74 -558 -164q68 -100 192 -159t248 -59q216 0 522 184l22 -74 q-428 -352 -766 -352q-224 0 -358 164q-120 150 -130 384q-38 28 -118 98z" />
<glyph unicode="F" horiz-adv-x="1094" d="M-26 1176q206 48 474 84q0 -28 2 -84l598 128q74 -84 96 -160l-352 -142v12v6q0 102 -134 102q-26 0 -206 -30q0 -124 4 -252q240 22 830 38q-392 -90 -418 -98q-238 -58 -410 -124q4 -216 10 -648q-56 -20 -174 -20t-174 -20q42 216 42 522q0 68 -2 150q-68 42 -166 144 l158 24q-2 34 -8 100q-8 82 -60 148q-56 60 -110 120z" />
<glyph unicode="G" horiz-adv-x="1460" d="M12 596q0 262 140 452t390 256q68 18 136 18q252 0 522 -248q-40 -4 -194 -88q-118 -64 -224 -168q-12 -10 -22 -10q-28 0 -28 24q0 20 26 69t26 55q0 10 -76 56q-168 96 -278 96q-106 0 -176 -98q-64 -88 -64 -198q0 -128 80 -270q74 -130 182 -220q132 -112 318 -112 q116 0 254 42v72q0 104 -66 204q-124 -44 -236 -98q-148 44 -294 202q478 80 1294 94q-174 -40 -340 -76l-104 -814l-314 -98q28 178 48 376q-258 -124 -446 -124q-256 0 -410 178q-144 170 -144 428z" />
<glyph unicode="H" horiz-adv-x="1340" d="M-52 690q66 10 200 26l-12 184q-16 104 -70 168q-34 34 -100 108q206 48 474 84q0 8 8 -516q118 8 460 26q-16 186 -36 230q-12 22 -146 176q214 50 476 84q0 -4 8 -480q42 0 127 2t127 2l-254 -48q4 -320 12 -642q-184 -70 -350 -126q44 206 44 498q0 88 -4 210 q-244 -54 -460 -128q0 -40 8 -540q-56 -18 -174 -19t-174 -21q40 193 40 460v26v88q-94 46 -204 148z" />
<glyph unicode="I" horiz-adv-x="594" d="M-28 1176q206 48 474 84l20 -1252q-56 -20 -175 -20t-175 -20q44 218 44 540q0 246 -20 400q-12 86 -60 148z" />
<glyph unicode="J" horiz-adv-x="580" d="M-40 1176q206 48 474 84q2 -94 8 -424q4 -262 4 -424q0 -222 -32 -360q-44 -178 -162 -320q-128 -154 -208 -212q-16 -12 -26 -12q-6 0 -21 18t-23 18q-4 -2 -6 -4q142 162 160 344q34 382 34 548q0 224 -32 476q-10 86 -62 150q-54 58 -108 118z" />
<glyph unicode="K" horiz-adv-x="1112" d="M-66 1176q208 48 474 84q0 -226 10 -596q128 34 238 132q126 112 126 230q0 104 -98 142v68q178 36 318 68q112 -126 112 -234q0 -126 -154 -250q-116 -94 -268 -152q286 -326 576 -778l-42 -44q-396 412 -804 594q0 -94 6 -346q-106 -42 -350 -126q44 218 44 532 q0 248 -20 408q-10 84 -62 146t-106 122z" />
<glyph unicode="L" horiz-adv-x="872" d="M-34 1176q198 48 474 84l18 -1034q222 26 604 42v-22q-452 -134 -672 -268q-52 22 -96 54q-62 -20 -184 -64q44 218 44 534q0 248 -20 406q-10 84 -62 146t-106 122z" />
<glyph unicode="M" horiz-adv-x="1906" d="M-14 160q0 234 290 640q264 366 494 530l80 -372q50 -212 116 -360q122 214 276 394q124 144 338 338q44 -206 86 -412q74 -288 174 -446q132 -208 322 -208q32 0 68 6v-10q-134 -62 -270 -124q-204 -90 -260 -90q-64 0 -116 84q-114 180 -230 894q-106 -110 -166 -298 q-54 -168 -54 -338q0 -324 226 -330q-226 -84 -348 -84q-136 0 -194 98q-88 152 -172 462q-66 246 -104 490q-110 -140 -188 -310q-90 -198 -90 -344q0 -250 258 -306v-16q-224 -80 -354 -80q-182 0 -182 192z" />
<glyph unicode="N" horiz-adv-x="1344" d="M-68 1176q218 50 474 84q74 -106 254 -380q72 -112 146 -222q84 -130 134 -228v74v44q0 218 -18 360q-12 96 -68 160q-36 34 -102 108q214 50 476 84q8 -588 20 -1166q-184 -70 -350 -126q30 138 38 344q-184 288 -522 530q4 -472 12 -834q-56 -18 -174 -19t-174 -21 q44 218 44 524q0 246 -22 416q-12 86 -60 150q-54 58 -108 118z" />
<glyph unicode="O" horiz-adv-x="1332" d="M2 546q0 282 242 480q226 186 516 186q230 0 396 -130q180 -142 180 -368q0 -282 -242 -482q-230 -188 -518 -188q-232 0 -398 132q-176 142 -176 370zM330 670q0 -182 98 -342q112 -182 286 -182q150 0 238 136q76 118 76 276q0 186 -98 348q-112 188 -288 188 q-148 0 -236 -144q-76 -122 -76 -280z" />
<glyph unicode="P" horiz-adv-x="1014" d="M-60 1176q206 48 474 84l2 -92l638 136q112 -124 112 -236q0 -208 -276 -362q-202 -110 -464 -160q0 -8 8 -452q-184 -70 -350 -126q44 212 44 524q0 252 -20 416q-10 84 -62 146t-106 122zM416 1078l8 -454q126 30 234 130q124 112 124 230q0 126 -114 126 q-50 0 -252 -32z" />
<glyph unicode="Q" horiz-adv-x="1404" d="M-12 540q0 298 258 510q242 200 548 200q246 0 426 -140q196 -152 196 -390q0 -200 -146 -386q-136 -172 -330 -256q84 -120 162 -120q72 0 186 108l30 -76q-242 -232 -356 -232q-80 0 -154 54q-10 8 -106 98q-58 54 -100 54q-76 0 -204 -130l-20 68q58 76 100 114 q-208 34 -346 172q-144 146 -144 352zM306 672q0 -170 76 -310q82 -152 228 -220q88 68 152 68q70 0 136 -76q100 58 154 192q46 114 46 246q0 152 -66 288t-188 218q-106 70 -204 70q-162 0 -256 -164q-78 -136 -78 -312z" />
<glyph unicode="R" horiz-adv-x="1092" d="M-74 1176q218 50 474 84l2 -82q72 14 594 126q112 -124 112 -234q0 -126 -154 -250q-118 -92 -270 -152q276 -314 578 -778l-44 -44q-396 412 -804 594q0 -94 6 -346q-184 -70 -350 -126q44 220 44 534q0 252 -20 406q-12 86 -60 148zM402 1092q0 -6 8 -428 q120 32 218 126q110 104 110 218t-106 114q-50 0 -230 -30z" />
<glyph unicode="S" horiz-adv-x="1194" d="M16 488v30l474 32l-10 -46l-126 -36q-12 -92 -12 -168q0 -302 196 -302q152 0 315 159t163 309q0 166 -216 212q-210 26 -420 54q-300 58 -300 204q0 234 304 306q240 56 528 56q50 0 102 -2q-6 -96 -14 -290q-80 -18 -264 -38v194h-16h-7q-82 0 -167 -42 q-102 -52 -102 -132q0 -60 70 -122q64 -60 340 -116q292 -62 400 -134q140 -98 140 -212q0 -102 -98 -204q-126 -132 -338 -212q-202 -78 -390 -78q-266 0 -411 156q-141 152 -141 408v14z" />
<glyph unicode="T" d="M-140 1182q574 88 1518 102q-324 -66 -408 -86q-230 -50 -404 -102q-160 -140 -160 -408q0 -226 127 -370t351 -144q228 0 590 224l6 -80q-562 -378 -904 -378q-212 0 -326 112t-114 324q0 344 252 662q-62 -24 -184 -74q-166 50 -344 218z" />
<glyph unicode="U" horiz-adv-x="1406" d="M30 436q0 196 85 404t223 346l172 42v-10q-202 -112 -202 -462q0 -120 32 -250q38 -152 104 -228q36 -42 134 -64q78 -18 152 -18q120 0 276 42q8 150 8 290q0 230 -18 380q-12 86 -62 150q-56 58 -110 118q214 50 476 84l22 -1166q-190 -72 -350 -126q12 70 22 144 q-300 -128 -508 -128q-214 0 -276 44q-180 122 -180 408z" />
<glyph unicode="V" horiz-adv-x="1288" d="M-234 1016v6q132 66 264 134q202 96 258 96q66 0 126 -88q136 -200 312 -896q172 182 250 298q134 192 134 346q0 232 -264 278q264 98 406 98q156 0 156 -122q0 -186 -360 -644q-170 -218 -518 -602q-64 212 -128 426q-100 300 -212 462q-152 218 -342 218 q-40 0 -82 -10z" />
<glyph unicode="W" horiz-adv-x="1858" d="M-266 988v12l268 124q206 90 260 90q64 0 116 -84q110 -178 230 -902q104 110 164 300q54 168 54 340q0 324 -224 334q224 88 348 88q136 0 194 -100q92 -162 170 -468q40 -156 106 -494q110 140 186 310q90 198 90 348q0 250 -256 310v18q224 82 354 82q182 0 182 -194 q0 -236 -288 -646q-266 -374 -496 -536q-40 186 -80 374q-50 216 -116 362q-122 -218 -274 -396q-128 -146 -340 -340q-44 206 -90 414q-72 292 -170 450q-132 210 -322 210q-32 0 -66 -6z" />
<glyph unicode="X" horiz-adv-x="1314" d="M36 1030q42 96 92 162q32 26 86 86q16 -18 34 -36q22 -24 22 -38q0 -20 -24 -42q160 -208 236 -300q134 -164 254 -284q214 262 214 438q0 138 -200 174q264 90 396 90q160 0 160 -116q0 -200 -476 -676q310 -288 542 -288q76 0 142 30q-120 -86 -240 -170 q-186 -126 -240 -126q-128 0 -422 352q-324 -280 -480 -336q-82 46 -82 134q0 26 10 50q20 -2 66 -12q40 -12 64 -12q84 0 352 258q-238 282 -506 662z" />
<glyph unicode="Y" horiz-adv-x="1090" d="M-234 968q130 96 400 274q38 22 76 22q92 0 254 -162q66 -66 214 -242q102 138 190 234l60 56q46 44 46 56q0 10 -34 25t-34 27q0 10 76 43t94 33q10 0 28 -8t30 -10q-2 -4 11 -26t13 -24l10 -52q0 -6 -2 -14q-76 -18 -220 -188q-328 -390 -328 -730q0 -228 260 -274 q-232 -90 -370 -90q-196 0 -196 180q0 184 200 518q-374 382 -638 382q-74 0 -140 -30z" />
<glyph unicode="Z" horiz-adv-x="1400" d="M-8 672q204 30 492 58q242 224 602 458q-436 -102 -710 -224q-174 52 -346 218q534 82 1438 102v-18q-238 -60 -414 -188q-166 -120 -314 -330q238 14 768 26q-218 -46 -438 -92q-250 -56 -432 -114q-48 -108 -48 -202q0 -268 410 -268q204 0 484 66l-44 -72 q-574 -160 -926 -160q-404 0 -404 226q0 136 144 324q-128 54 -262 190z" />
<glyph unicode="a" horiz-adv-x="1338" d="M-22 646q134 20 310 38q102 152 282 336q156 154 312 310q44 -152 88 -302q52 -174 104 -298q108 4 420 10q-132 -24 -394 -74q194 -446 466 -446q52 0 104 16v-2q-138 -68 -278 -138q-212 -100 -266 -100q-106 0 -212 252q-40 98 -116 350q-260 -66 -474 -152 q-22 -82 -22 -150q0 -242 266 -288q-230 -88 -364 -88q-186 0 -186 162q0 148 156 420q-84 42 -196 144zM424 696q112 8 338 22q-48 170 -88 338q-144 -154 -250 -360z" />
<glyph unicode="b" horiz-adv-x="1210" d="M-60 1176q206 48 474 84l2 -82q72 14 594 126q110 -122 110 -232q0 -116 -128 -230q-100 -90 -234 -148q280 52 536 108q42 -100 42 -202q0 -272 -270 -480q-252 -194 -534 -194q-148 0 -290 62q-106 0 -158 -20q46 218 46 526q0 246 -22 414q-12 86 -60 150 q-54 58 -108 118zM416 1092l8 -428q124 32 220 126q110 106 110 224q0 108 -108 108q-50 0 -230 -30zM426 540q0 -266 8 -502h8q290 0 452 272q26 44 50 114q30 80 30 122q0 38 -30 46q-10 4 -60 4q-122 0 -458 -56z" />
<glyph unicode="c" horiz-adv-x="1222" d="M22 596q0 262 140 452t390 256q68 18 136 18q252 0 522 -248q-40 -4 -194 -88q-118 -64 -224 -168q-12 -10 -22 -10q-28 0 -28 24q0 20 26 69t26 55q0 36 -148 90q-136 50 -194 50q-124 0 -187 -77t-63 -205q0 -244 177 -421t421 -177q268 0 576 208l26 -74 q-474 -352 -810 -352q-274 0 -424 164q-146 158 -146 434z" />
<glyph unicode="d" horiz-adv-x="1096" d="M-36 1176q206 48 474 84l2 -82l692 148q94 -106 94 -256q0 -254 -204 -540q-186 -260 -426 -402q-186 -110 -486 -160q44 218 44 538q0 250 -20 402q-12 86 -62 150q-54 58 -108 118zM442 1092l16 -954q162 96 286 382q116 266 116 476q0 148 -84 148q-72 0 -334 -52z " />
<glyph unicode="e" horiz-adv-x="1226" d="M-130 644q40 4 118 16q22 278 192 460q178 194 452 194q298 0 536 -240l-298 -220q-264 238 -456 238q-126 0 -196 -98q-62 -86 -62 -218q0 -48 10 -98q450 44 1220 60q-470 -94 -570 -116q-322 -74 -558 -164q68 -100 192 -159t248 -59q216 0 522 184l22 -74 q-428 -352 -766 -352q-224 0 -358 164q-120 150 -130 384q-38 28 -118 98z" />
<glyph unicode="f" horiz-adv-x="1094" d="M-26 1176q206 48 474 84q0 -28 2 -84l598 128q74 -84 96 -160l-352 -142v12v6q0 102 -134 102q-26 0 -206 -30q0 -124 4 -252q240 22 830 38q-392 -90 -418 -98q-238 -58 -410 -124q4 -216 10 -648q-56 -20 -174 -20t-174 -20q42 216 42 522q0 68 -2 150q-68 42 -166 144 l158 24q-2 34 -8 100q-8 82 -60 148q-56 60 -110 120z" />
<glyph unicode="g" horiz-adv-x="1460" d="M12 596q0 262 140 452t390 256q68 18 136 18q252 0 522 -248q-40 -4 -194 -88q-118 -64 -224 -168q-12 -10 -22 -10q-28 0 -28 24q0 20 26 69t26 55q0 10 -76 56q-168 96 -278 96q-106 0 -176 -98q-64 -88 -64 -198q0 -128 80 -270q74 -130 182 -220q132 -112 318 -112 q116 0 254 42v72q0 104 -66 204q-124 -44 -236 -98q-148 44 -294 202q478 80 1294 94q-174 -40 -340 -76l-104 -814l-314 -98q28 178 48 376q-258 -124 -446 -124q-256 0 -410 178q-144 170 -144 428z" />
<glyph unicode="h" horiz-adv-x="1340" d="M-52 690q66 10 200 26l-12 184q-16 104 -70 168q-34 34 -100 108q206 48 474 84q0 8 8 -516q118 8 460 26q-16 186 -36 230q-12 22 -146 176q214 50 476 84q0 -4 8 -480q42 0 127 2t127 2l-254 -48q4 -320 12 -642q-184 -70 -350 -126q44 206 44 498q0 88 -4 210 q-244 -54 -460 -128q0 -40 8 -540q-56 -18 -174 -19t-174 -21q40 193 40 460v26v88q-94 46 -204 148z" />
<glyph unicode="i" horiz-adv-x="594" d="M-28 1176q206 48 474 84l20 -1252q-56 -20 -175 -20t-175 -20q44 218 44 540q0 246 -20 400q-12 86 -60 148z" />
<glyph unicode="j" horiz-adv-x="580" d="M-40 1176q206 48 474 84q2 -94 8 -424q4 -262 4 -424q0 -222 -32 -360q-44 -178 -162 -320q-128 -154 -208 -212q-16 -12 -26 -12q-6 0 -21 18t-23 18q-4 -2 -6 -4q142 162 160 344q34 382 34 548q0 224 -32 476q-10 86 -62 150q-54 58 -108 118z" />
<glyph unicode="k" horiz-adv-x="1112" d="M-66 1176q208 48 474 84q0 -226 10 -596q128 34 238 132q126 112 126 230q0 104 -98 142v68q178 36 318 68q112 -126 112 -234q0 -126 -154 -250q-116 -94 -268 -152q286 -326 576 -778l-42 -44q-396 412 -804 594q0 -94 6 -346q-106 -42 -350 -126q44 218 44 532 q0 248 -20 408q-10 84 -62 146t-106 122z" />
<glyph unicode="l" horiz-adv-x="872" d="M-34 1176q198 48 474 84l18 -1034q222 26 604 42v-22q-452 -134 -672 -268q-52 22 -96 54q-62 -20 -184 -64q44 218 44 534q0 248 -20 406q-10 84 -62 146t-106 122z" />
<glyph unicode="m" horiz-adv-x="1906" d="M-14 160q0 234 290 640q264 366 494 530l80 -372q50 -212 116 -360q122 214 276 394q124 144 338 338q44 -206 86 -412q74 -288 174 -446q132 -208 322 -208q32 0 68 6v-10q-134 -62 -270 -124q-204 -90 -260 -90q-64 0 -116 84q-114 180 -230 894q-106 -110 -166 -298 q-54 -168 -54 -338q0 -324 226 -330q-226 -84 -348 -84q-136 0 -194 98q-88 152 -172 462q-66 246 -104 490q-110 -140 -188 -310q-90 -198 -90 -344q0 -250 258 -306v-16q-224 -80 -354 -80q-182 0 -182 192z" />
<glyph unicode="n" horiz-adv-x="1344" d="M-68 1176q218 50 474 84q74 -106 254 -380q72 -112 146 -222q84 -130 134 -228v74v44q0 218 -18 360q-12 96 -68 160q-36 34 -102 108q214 50 476 84q8 -588 20 -1166q-184 -70 -350 -126q30 138 38 344q-184 288 -522 530q4 -472 12 -834q-56 -18 -174 -19t-174 -21 q44 218 44 524q0 246 -22 416q-12 86 -60 150q-54 58 -108 118z" />
<glyph unicode="o" horiz-adv-x="1332" d="M2 546q0 282 242 480q226 186 516 186q230 0 396 -130q180 -142 180 -368q0 -282 -242 -482q-230 -188 -518 -188q-232 0 -398 132q-176 142 -176 370zM330 670q0 -182 98 -342q112 -182 286 -182q150 0 238 136q76 118 76 276q0 186 -98 348q-112 188 -288 188 q-148 0 -236 -144q-76 -122 -76 -280z" />
<glyph unicode="p" horiz-adv-x="1014" d="M-60 1176q206 48 474 84l2 -92l638 136q112 -124 112 -236q0 -208 -276 -362q-202 -110 -464 -160q0 -8 8 -452q-184 -70 -350 -126q44 212 44 524q0 252 -20 416q-10 84 -62 146t-106 122zM416 1078l8 -454q126 30 234 130q124 112 124 230q0 126 -114 126 q-50 0 -252 -32z" />
<glyph unicode="q" horiz-adv-x="1404" d="M-12 540q0 298 258 510q242 200 548 200q246 0 426 -140q196 -152 196 -390q0 -200 -146 -386q-136 -172 -330 -256q84 -120 162 -120q72 0 186 108l30 -76q-242 -232 -356 -232q-80 0 -154 54q-10 8 -106 98q-58 54 -100 54q-76 0 -204 -130l-20 68q58 76 100 114 q-208 34 -346 172q-144 146 -144 352zM306 672q0 -170 76 -310q82 -152 228 -220q88 68 152 68q70 0 136 -76q100 58 154 192q46 114 46 246q0 152 -66 288t-188 218q-106 70 -204 70q-162 0 -256 -164q-78 -136 -78 -312z" />
<glyph unicode="r" horiz-adv-x="1092" d="M-74 1176q218 50 474 84l2 -82q72 14 594 126q112 -124 112 -234q0 -126 -154 -250q-118 -92 -270 -152q276 -314 578 -778l-44 -44q-396 412 -804 594q0 -94 6 -346q-184 -70 -350 -126q44 220 44 534q0 252 -20 406q-12 86 -60 148zM402 1092q0 -6 8 -428 q120 32 218 126q110 104 110 218t-106 114q-50 0 -230 -30z" />
<glyph unicode="s" horiz-adv-x="1194" d="M16 488v30l474 32l-10 -46l-126 -36q-12 -92 -12 -168q0 -302 196 -302q152 0 315 159t163 309q0 166 -216 212q-210 26 -420 54q-300 58 -300 204q0 234 304 306q240 56 528 56q50 0 102 -2q-6 -96 -14 -290q-80 -18 -264 -38v194h-16h-7q-82 0 -167 -42 q-102 -52 -102 -132q0 -60 70 -122q64 -60 340 -116q292 -62 400 -134q140 -98 140 -212q0 -102 -98 -204q-126 -132 -338 -212q-202 -78 -390 -78q-266 0 -411 156q-141 152 -141 408v14z" />
<glyph unicode="t" d="M-140 1182q574 88 1518 102q-324 -66 -408 -86q-230 -50 -404 -102q-160 -140 -160 -408q0 -226 127 -370t351 -144q228 0 590 224l6 -80q-562 -378 -904 -378q-212 0 -326 112t-114 324q0 344 252 662q-62 -24 -184 -74q-166 50 -344 218z" />
<glyph unicode="u" horiz-adv-x="1406" d="M30 436q0 196 85 404t223 346l172 42v-10q-202 -112 -202 -462q0 -120 32 -250q38 -152 104 -228q36 -42 134 -64q78 -18 152 -18q120 0 276 42q8 150 8 290q0 230 -18 380q-12 86 -62 150q-56 58 -110 118q214 50 476 84l22 -1166q-190 -72 -350 -126q12 70 22 144 q-300 -128 -508 -128q-214 0 -276 44q-180 122 -180 408z" />
<glyph unicode="v" horiz-adv-x="1288" d="M-234 1016v6q132 66 264 134q202 96 258 96q66 0 126 -88q136 -200 312 -896q172 182 250 298q134 192 134 346q0 232 -264 278q264 98 406 98q156 0 156 -122q0 -186 -360 -644q-170 -218 -518 -602q-64 212 -128 426q-100 300 -212 462q-152 218 -342 218 q-40 0 -82 -10z" />
<glyph unicode="w" horiz-adv-x="1858" d="M-266 988v12l268 124q206 90 260 90q64 0 116 -84q110 -178 230 -902q104 110 164 300q54 168 54 340q0 324 -224 334q224 88 348 88q136 0 194 -100q92 -162 170 -468q40 -156 106 -494q110 140 186 310q90 198 90 348q0 250 -256 310v18q224 82 354 82q182 0 182 -194 q0 -236 -288 -646q-266 -374 -496 -536q-40 186 -80 374q-50 216 -116 362q-122 -218 -274 -396q-128 -146 -340 -340q-44 206 -90 414q-72 292 -170 450q-132 210 -322 210q-32 0 -66 -6z" />
<glyph unicode="x" horiz-adv-x="1314" d="M36 1030q42 96 92 162q32 26 86 86q16 -18 34 -36q22 -24 22 -38q0 -20 -24 -42q160 -208 236 -300q134 -164 254 -284q214 262 214 438q0 138 -200 174q264 90 396 90q160 0 160 -116q0 -200 -476 -676q310 -288 542 -288q76 0 142 30q-120 -86 -240 -170 q-186 -126 -240 -126q-128 0 -422 352q-324 -280 -480 -336q-82 46 -82 134q0 26 10 50q20 -2 66 -12q40 -12 64 -12q84 0 352 258q-238 282 -506 662z" />
<glyph unicode="y" horiz-adv-x="1090" d="M-234 968q130 96 400 274q38 22 76 22q92 0 254 -162q66 -66 214 -242q102 138 190 234l60 56q46 44 46 56q0 10 -34 25t-34 27q0 10 76 43t94 33q10 0 28 -8t30 -10q-2 -4 11 -26t13 -24l10 -52q0 -6 -2 -14q-76 -18 -220 -188q-328 -390 -328 -730q0 -228 260 -274 q-232 -90 -370 -90q-196 0 -196 180q0 184 200 518q-374 382 -638 382q-74 0 -140 -30z" />
<glyph unicode="z" horiz-adv-x="1400" d="M-8 672q204 30 492 58q242 224 602 458q-436 -102 -710 -224q-174 52 -346 218q534 82 1438 102v-18q-238 -60 -414 -188q-166 -120 -314 -330q238 14 768 26q-218 -46 -438 -92q-250 -56 -432 -114q-48 -108 -48 -202q0 -268 410 -268q204 0 484 66l-44 -72 q-574 -160 -926 -160q-404 0 -404 226q0 136 144 324q-128 54 -262 190z" />
<glyph unicode="&#xad;" d="M64 682q392 60 1068 90l-40 -92q-404 -94 -682 -216q-170 48 -346 218z" />
<glyph unicode="&#x2000;" horiz-adv-x="701" />
<glyph unicode="&#x2001;" horiz-adv-x="1402" />
<glyph unicode="&#x2002;" horiz-adv-x="701" />
<glyph unicode="&#x2003;" horiz-adv-x="1402" />
<glyph unicode="&#x2004;" horiz-adv-x="467" />
<glyph unicode="&#x2005;" horiz-adv-x="350" />
<glyph unicode="&#x2006;" horiz-adv-x="233" />
<glyph unicode="&#x2007;" horiz-adv-x="233" />
<glyph unicode="&#x2008;" horiz-adv-x="175" />
<glyph unicode="&#x2009;" horiz-adv-x="280" />
<glyph unicode="&#x200a;" horiz-adv-x="77" />
<glyph unicode="&#x2010;" d="M64 682q392 60 1068 90l-40 -92q-404 -94 -682 -216q-170 48 -346 218z" />
<glyph unicode="&#x2011;" d="M64 682q392 60 1068 90l-40 -92q-404 -94 -682 -216q-170 48 -346 218z" />
<glyph unicode="&#x2012;" d="M64 682q392 60 1068 90l-40 -92q-404 -94 -682 -216q-170 48 -346 218z" />
<glyph unicode="&#x2013;" horiz-adv-x="1130" d="M64 682q376 60 1024 90l-38 -92q-388 -94 -654 -216q-163 48 -332 218z" />
<glyph unicode="&#x2014;" horiz-adv-x="2154" d="M64 682q752 60 2048 90l-77 -92q-774 -94 -1308 -216q-326 48 -663 218z" />
<glyph unicode="&#x2018;" horiz-adv-x="520" d="M96 798q98 384 254 570l70 -18q-28 -88 -28 -196q0 -120 38 -286q-112 -24 -334 -70z" />
<glyph unicode="&#x2019;" horiz-adv-x="528" d="M112 1302q112 24 334 70q-98 -384 -254 -570l-70 18q28 88 28 196q0 120 -38 286z" />
<glyph unicode="&#x201c;" horiz-adv-x="940" d="M96 798q98 384 254 570l70 -18q-28 -88 -28 -196q0 -120 38 -286q-112 -24 -334 -70zM510 800q98 384 254 570l70 -18q-28 -88 -28 -196q0 -120 38 -286q-112 -24 -334 -70z" />
<glyph unicode="&#x201d;" horiz-adv-x="940" d="M112 1302q112 24 334 70q-98 -384 -254 -570l-70 18q28 88 28 196q0 120 -38 286zM526 1304q112 24 334 70q-98 -384 -254 -570l-70 18q28 88 28 196q0 120 -38 286z" />
<glyph unicode="&#x202f;" horiz-adv-x="280" />
<glyph unicode="&#x205f;" horiz-adv-x="350" />
<glyph unicode="&#x25fc;" horiz-adv-x="1280" d="M0 0v1280h1280v-1280h-1280z" />
</font>
</defs>
</svg>
